{
  "accessors": [
    {
      "bufferView": 2,
      "componentType": 5126,
      "count": 65532,
      "max": [
        31.975736618041992,
        470.68408203125,
        62.27064514160156
      ],
      "min": [
        -62.78464126586914,
        396.5956726074219,
        -51.85106658935547
      ],
      "type": "VEC3"
    },
    {
      "bufferView": 2,
      "byteOffset": 786384,
      "componentType": 5126,
      "count": 65532,
      "max": [
        0.9943791627883911,
        0.9999478459358215,
        0.9741078019142151
      ],
      "min": [
        -0.9989303350448608,
        -0.9999452829360962,
        -0.9996439218521118
      ],
      "type": "VEC3"
    },
    {
      "bufferView": 1,
      "componentType": 5126,
      "count": 65532,
      "max": [
        1.0,
        0.9536629915237427
      ],
      "min": [
        0.23455600440502167,
        0.01706700026988983
      ],
      "type": "VEC2"
    },
    {
      "bufferView": 0,
      "componentType": 5125,
      "count": 366540,
      "type": "SCALAR"
    },
    {
      "bufferView": 2,
      "byteOffset": 1572768,
      "componentType": 5126,
      "count": 65532,
      "max": [
        55.79605484008789,
        470.6775207519531,
        63.391639709472656
      ],
      "min": [
        -57.9233283996582,
        396.5956726074219,
        -51.704959869384766
      ],
      "type": "VEC3"
    },
    {
      "bufferView": 2,
      "byteOffset": 2359152,
      "componentType": 5126,
      "count": 65532,
      "max": [
        0.8851664662361145,
        0.9983413219451904,
        0.9998736381530762
      ],
      "min": [
        -0.9017072319984436,
        -0.999995768070221,
        -0.9984937310218811
      ],
      "type": "VEC3"
    },
    {
      "bufferView": 1,
      "byteOffset": 524256,
      "componentType": 5126,
      "count": 65532,
      "max": [
        0.993120014667511,
        0.9737579822540283
      ],
      "min": [
        0.0,
        0.05592700093984604
      ],
      "type": "VEC2"
    },
    {
      "bufferView": 0,
      "byteOffset": 1466160,
      "componentType": 5125,
      "count": 338220,
      "type": "SCALAR"
    },
    {
      "bufferView": 2,
      "byteOffset": 3145536,
      "componentType": 5126,
      "count": 65532,
      "max": [
        60.85500717163086,
        470.683349609375,
        63.391639709472656
      ],
      "min": [
        -46.09469985961914,
        399.26983642578125,
        -43.24610137939453
      ],
      "type": "VEC3"
    },
    {
      "bufferView": 2,
      "byteOffset": 3931920,
      "componentType": 5126,
      "count": 65532,
      "max": [
        0.9997602105140686,
        0.9995917677879333,
        0.9998736381530762
      ],
      "min": [
        -0.9112476706504822,
        -0.9999769330024719,
        -0.9815076589584351
      ],
      "type": "VEC3"
    },
    {
      "bufferView": 1,
      "byteOffset": 1048512,
      "componentType": 5126,
      "count": 65532,
      "max": [
        0.9166039824485779,
        0.9729200005531311
      ],
      "min": [
        0.0,
        0.0
      ],
      "type": "VEC2"
    },
    {
      "bufferView": 0,
      "byteOffset": 2819040,
      "componentType": 5125,
      "count": 336705,
      "type": "SCALAR"
    },
    {
      "bufferView": 2,
      "byteOffset": 4718304,
      "componentType": 5126,
      "count": 11564,
      "max": [
        34.82076644897461,
        470.0673522949219,
        53.245399475097656
      ],
      "min": [
        -51.505882263183594,
        396.8059387207031,
        -49.749778747558594
      ],
      "type": "VEC3"
    },
    {
      "bufferView": 2,
      "byteOffset": 4857072,
      "componentType": 5126,
      "count": 11564,
      "max": [
        0.8995234370231628,
        0.9897814393043518,
        0.9767403602600098
      ],
      "min": [
        -0.9913880228996277,
        -0.9992464184761047,
        -0.9904182553291321
      ],
      "type": "VEC3"
    },
    {
      "bufferView": 1,
      "byteOffset": 1572768,
      "componentType": 5126,
      "count": 11564,
      "max": [
        0.9983199834823608,
        0.9620410203933716
      ],
      "min": [
        0.03731900081038475,
        0.0024820000398904085
      ],
      "type": "VEC2"
    },
    {
      "bufferView": 0,
      "byteOffset": 4165860,
      "componentType": 5125,
      "count": 31905,
      "type": "SCALAR"
    }
  ],
  "asset": {
    "extras": {
      "author": "danderson4 (https://sketchfab.com/danderson4)",
      "license": "CC-BY-NC-4.0 (http://creativecommons.org/licenses/by-nc/4.0/)",
      "source": "https://sketchfab.com/3d-models/predynastic-c-ware-bowl-petrie-museum-london-3dd2f93f74c94fdcad2a59f47be2942e",
      "title": "Predynastic C-Ware Bowl, Petrie Museum, London"
    },
    "generator": "Sketchfab-12.67.0",
    "version": "2.0"
  },
  "bufferViews": [
    {
      "buffer": 0,
      "byteLength": 4293480,
      "name": "floatBufferViews",
      "target": 34963
    },
    {
      "buffer": 0,
      "byteLength": 1665280,
      "byteOffset": 4293480,
      "byteStride": 8,
      "name": "floatBufferViews",
      "target": 34962
    },
    {
      "buffer": 0,
      "byteLength": 4995840,
      "byteOffset": 5958760,
      "byteStride": 12,
      "name": "floatBufferViews",
      "target": 34962
    }
  ],
  "buffers": [
    {
      "byteLength": 10954600,
      "uri": "scene.bin"
    }
  ],
  "images": [
    {
      "uri": "textures/UC15285_baseColor.jpeg"
    }
  ],
  "materials": [
    {
      "doubleSided": true,
      "name": "UC15285",
      "pbrMetallicRoughness": {
        "baseColorTexture": {
          "index": 0
        },
        "metallicFactor": 0.0,
        "roughnessFactor": 0.43911123112454453
      }
    }
  ],
  "meshes": [
    {
      "name": "Object_0",
      "primitives": [
        {
          "attributes": {
            "NORMAL": 1,
            "POSITION": 0,
            "TEXCOORD_0": 2
          },
          "indices": 3,
          "material": 0,
          "mode": 4
        }
      ]
    },
    {
      "name": "Object_1",
      "primitives": [
        {
          "attributes": {
            "NORMAL": 5,
            "POSITION": 4,
            "TEXCOORD_0": 6
          },
          "indices": 7,
          "material": 0,
          "mode": 4
        }
      ]
    },
    {
      "name": "Object_2",
      "primitives": [
        {
          "attributes": {
            "NORMAL": 9,
            "POSITION": 8,
            "TEXCOORD_0": 10
          },
          "indices": 11,
          "material": 0,
          "mode": 4
        }
      ]
    },
    {
      "name": "Object_3",
      "primitives": [
        {
          "attributes": {
            "NORMAL": 13,
            "POSITION": 12,
            "TEXCOORD_0": 14
          },
          "indices": 15,
          "material": 0,
          "mode": 4
        }
      ]
    }
  ],
  "nodes": [
    {
      "children": [
        1
      ],
      "matrix": [
        0.9998570084571838,
        -0.01690046489238739,
        -0.0005738096660934427,
        0.0,
        -0.01594517007470131,
        -0.9309549927711486,
        -0.3647856414318087,
        0.0,
        0.005630855448544025,
        0.36474260687828086,
        -0.9310913681983947,
        0.0,
        6.881837368011475,
        407.34887695312506,
        -270.08236694335926,
        1.0
      ],
      "name": "Sketchfab_model"
    },
    {
      "children": [
        2,
        3,
        4,
        5
      ],
      "name": "UC15285.obj.cleaner.materialmerger.gles"
    },
    {
      "mesh": 0,
      "name": "Object_2"
    },
    {
      "mesh": 1,
      "name": "Object_3"
    },
    {
      "mesh": 2,
      "name": "Object_4"
    },
    {
      "mesh": 3,
      "name": "Object_5"
    }
  ],
  "samplers": [
    {
      "magFilter": 9729,
      "minFilter": 9987,
      "wrapS": 10497,
      "wrapT": 10497
    }
  ],
  "scene": 0,
  "scenes": [
    {
      "name": "Sketchfab_Scene",
      "nodes": [
        0
      ]
    }
  ],
  "textures": [
    {
      "sampler": 0,
      "source": 0
    }
  ]
}
